# xmcd
#
# Track frame offsets:
# 150
# 15411
# 32784
# 50118
# 65211
#
# Disc length: 1055 seconds
#
#
# Revision: 0
# Processed by: cddbd v1.5.1PL0 Copyright (c) Steve Scherf et al.
# Submitted via: FreeRIP 2.94 
#
DISCID=42041d05
DTITLE=Mirco - Wahnsinn
DYEAR=1996
DGENRE=Folk
TTITLE0=Wahnsinn
TTITLE1=Ich brauch ´ne Dosis Liebe
TTITLE2=Tue´s doch
TTITLE3=Hast Du heut´früh Zeit für mich
TTITLE4=Du wirst gehn
EXTD=
EXTT0=
EXTT1=
EXTT2=
EXTT3=
EXTT4=
PLAYORDER=
